#!OML:ASF X:\für Bonn\!DataBase\2005_08_11_Bastian_Final\c3d\Bastian.ASF
:FULLY-SPECIFIED
:DEGREES
151
root -2.01058 17.347 6.17076 160.908 -7.15281 -172.465
lowerback 13.4083 -4.52599 4.39782
upperback 8.30851 -7.19864 4.47649
thorax 1.43012 -4.26813 3.05877
lowerneck -7.05214 -3.96393 -4.58397
upperneck -2.63999 -4.74356 6.92269
head 0.687464 -2.16824 2.87493
rclavicle -4.1049e-014 6.36111e-014
rhumerus -35.7575 22.657 -88.3506
rradius 57.8095
rwrist -19.1562
rhand -37.8099 17.6446
rfingers 7.12502
rthumb -10.8559 -12.0548
lclavicle -4.1049e-014 6.36111e-014
lhumerus 15.6818 -44.0495 75.9375
lradius 80.7079
lwrist -19.4657
lhand -53.5485 -6.12003
lfingers 7.12502
lthumb -25.991 22.1225
rfemur -11.8348 2.31249 24.985
rtibia 65.2374
rfoot -3.96371 -14.838
rtoes -20.1909
lfemur 7.75417 -0.921594 -14.7998
ltibia 27.009
lfoot -11.5196 -0.738928
ltoes 11.846
152
root -1.99224 17.3394 6.14378 161.191 -6.93168 -172.587
lowerback 12.8264 -4.42827 4.2821
upperback 8.22018 -7.0567 4.39621
thorax 1.63816 -4.16966 2.96289
lowerneck -6.93501 -3.94942 -4.44711
upperneck -2.53329 -4.74954 6.88148
head 0.696055 -2.177 2.83643
rclavicle 7.196e-014 1.59028e-014
rhumerus -35.643 22.4927 -88.5382
rradius 58.5389
rwrist -19.489
rhand -38.0254 17.9616
rfingers 7.12502
rthumb -11.0638 -11.7267
lclavicle 7.196e-014 1.59028e-014
lhumerus 14.0929 -45.0479 76.4767
lradius 79.1572
lwrist -19.9725
lhand -53.2177 -5.72767
lfingers 7.12502
lthumb -25.6743 22.561
rfemur -10.878 2.1674 24.9054
rtibia 63.5667
rfoot -4.88392 -14.7905
rtoes -20.5107
lfemur 7.44654 -0.864275 -14.8188
ltibia 27.338
lfoot -11.8142 -0.669341
ltoes 11.9278
153
root -1.97264 17.3313 6.1189 161.484 -6.72829 -172.708
lowerback 12.2653 -4.34773 4.16068
upperback 8.1213 -6.93326 4.30861
thorax 1.82553 -4.08039 2.87024
lowerneck -6.76358 -3.92307 -4.28789
upperneck -2.45904 -4.74052 6.84354
head 0.683357 -2.17932 2.79653
rclavicle 5.26779e-014 -3.18055e-015
rhumerus -35.5473 22.4207 -88.7579
rradius 59.3995
rwrist -20.0087
rhand -38.2132 18.2141
rfingers 7.12502
rthumb -11.2449 -11.4646
lclavicle 5.26779e-014 -3.18055e-015
lhumerus 12.4776 -45.9952 77.0774
lradius 77.5499
lwrist -20.3513
lhand -52.821 -5.43613
lfingers 7.12502
lthumb -25.2943 22.9068
rfemur -9.98643 1.96359 24.8094
rtibia 61.9436
rfoot -5.74873 -14.7081
rtoes -20.8079
lfemur 7.1032 -0.842181 -14.8473
ltibia 27.6809
lfoot -12.1048 -0.580223
ltoes 12.0025
154
root -1.95197 17.3214 6.09589 161.735 -6.49922 -172.836
lowerback 11.782 -4.25248 4.03461
upperback 8.03812 -6.79275 4.22547
thorax 1.99054 -3.98691 2.79247
lowerneck -6.62651 -3.89989 -4.15714
upperneck -2.38195 -4.73127 6.82617
head 0.679117 -2.17985 2.76839
rclavicle 1.38155e-014 -1.90833e-014
rhumerus -35.4135 22.3083 -88.9573
rradius 60.2769
rwrist -20.4582
rhand -38.4036 18.446
rfingers 7.12502
rthumb -11.4285 -11.2225
lclavicle 1.38155e-014 -1.90833e-014
lhumerus 10.8736 -46.9591 77.7012
lradius 75.935
lwrist -20.5628
lhand -52.3546 -5.1409
lfingers 7.12502
lthumb -24.8473 23.2645
rfemur -9.10301 1.73919 24.7199
rtibia 60.3642
rfoot -6.50015 -14.5301
rtoes -21.2574
lfemur 6.80131 -0.764972 -14.8661
ltibia 28.0329
lfoot -12.3921 -0.503451
ltoes 11.8975
155
root -1.9299 17.3094 6.07626 161.987 -6.29084 -172.967
lowerback 11.3475 -4.16843 3.89672
upperback 7.94796 -6.6637 4.13865
thorax 2.12409 -3.90047 2.7261
lowerneck -6.50097 -3.86878 -3.99033
upperneck -2.29765 -4.71324 6.78163
head 0.676695 -2.17613 2.72459
rclavicle 2.53947e-014 -4.13472e-014
rhumerus -35.3015 22.2367 -89.1725
rradius 61.2254
rwrist -20.9204
rhand -38.6258 18.6167
rfingers 7.12502
rthumb -11.6428 -11.0399
lclavicle 2.53947e-014 -4.13472e-014
lhumerus 9.28564 -47.8814 78.3658
lradius 74.2991
lwrist -20.5734
lhand -51.7831 -5.03663
lfingers 7.12502
lthumb -24.2996 23.4432
rfemur -8.28189 1.45443 24.6157
rtibia 58.8444
rfoot -7.18178 -14.2454
rtoes -21.2519
lfemur 6.48051 -0.746879 -14.9017
ltibia 28.39
lfoot -12.6755 -0.419852
ltoes 11.8979
156
root -1.90726 17.2982 6.05852 162.189 -6.08614 -173.107
lowerback 10.9917 -4.08395 3.74922
upperback 7.87246 -6.53624 4.05178
thorax 2.23297 -3.8188 2.67382
lowerneck -6.37861 -3.84243 -3.7942
upperneck -2.23852 -4.70106 6.69032
head 0.664746 -2.17588 2.65971
rclavicle -1.94312e-014 -2.54444e-014
rhumerus -35.134 22.2088 -89.3514
rradius 62.205
rwrist -21.3635
rhand -38.8198 18.6807
rfingers 7.12502
rthumb -11.8299 -10.9652
lclavicle -1.94312e-014 -2.54444e-014
lhumerus 7.66201 -48.7657 79.0812
lradius 72.6639
lwrist -20.4496
lhand -51.1227 -5.18222
lfingers 7.12502
lthumb -23.6663 23.381
rfemur -7.47031 1.1022 24.4916
rtibia 57.3932
rfoot -7.98953 -13.8934
rtoes -21.1956
lfemur 6.2031 -0.691766 -14.9376
ltibia 28.7449
lfoot -12.945 -0.343991
ltoes 11.8541
157
root -1.88333 17.2868 6.0423 162.388 -5.8983 -173.283
lowerback 10.6554 -3.9952 3.55994
upperback 7.80791 -6.40636 3.95637
thorax 2.34646 -3.73832 2.63801
lowerneck -6.2835 -3.81258 -3.61721
upperneck -2.18062 -4.68036 6.6354
head 0.658508 -2.16961 2.61059
rclavicle -6.06293e-015 -2.3059e-014
rhumerus -34.9206 22.148 -89.5146
rradius 63.1916
rwrist -21.7124
rhand -38.9926 18.6701
rfingers 7.12502
rthumb -11.9965 -10.9661
lclavicle -6.06293e-015 -2.3059e-014
lhumerus 6.09589 -49.6293 79.827
lradius 70.9579
lwrist -20.1854
lhand -50.4358 -5.56812
lfingers 7.12502
lthumb -23.0073 23.0787
rfemur -6.71558 0.695847 24.3152
rtibia 56.0321
rfoot -8.91582 -13.3775
rtoes -21.0385
lfemur 5.93272 -0.646696 -15.0121
ltibia 29.083
lfoot -13.2262 -0.289219
ltoes 11.8332
158
root -1.85837 17.2758 6.02677 162.581 -5.6938 -173.418
lowerback 10.3397 -3.91317 3.43543
upperback 7.73864 -6.2781 3.85282
thorax 2.43733 -3.65644 2.56219
lowerneck -6.16277 -3.78236 -3.42235
upperneck -2.13249 -4.65972 6.58729
head 0.644509 -2.16372 2.56104
rclavicle -6.00827e-014 5.56597e-014
rhumerus -34.7093 22.0783 -89.6974
rradius 64.1889
rwrist -22.0163
rhand -39.1518 18.6305
rfingers 7.12502
rthumb -12.15 -10.9967
lclavicle -6.00827e-014 5.56597e-014
lhumerus 4.49674 -50.4996 80.5737
lradius 69.2942
lwrist -19.758
lhand -49.7238 -6.18052
lfingers 7.12502
lthumb -22.324 22.5498
rfemur -6.02463 0.257854 24.1859
rtibia 54.7643
rfoot -9.83072 -12.7191
rtoes -20.3379
lfemur 5.67016 -0.60654 -15.0417
ltibia 29.4031
lfoot -13.4717 -0.204085
ltoes 11.8251
159
root -1.83172 17.2656 6.012 162.778 -5.53534 -173.613
lowerback 10.0407 -3.83174 3.20469
upperback 7.67408 -6.1603 3.77075
thorax 2.53742 -3.58623 2.57011
lowerneck -6.09115 -3.75039 -3.29938
upperneck -2.06874 -4.63224 6.52886
head 0.645458 -2.15336 2.52068
rclavicle -7.40473e-015 -3.89618e-014
rhumerus -34.4294 22.0482 -89.8086
rradius 65.1573
rwrist -22.2417
rhand -39.2809 18.5794
rfingers 7.12502
rthumb -12.2746 -11.0404
lclavicle -7.40473e-015 -3.89618e-014
lhumerus 2.97112 -51.3311 81.3648
lradius 67.6034
lwrist -19.2965
lhand -49.0464 -6.8088
lfingers 7.12502
lthumb -21.6736 21.9981
rfemur -5.38981 -0.236147 23.9804
rtibia 53.6126
rfoot -10.6632 -11.9538
rtoes -19.2787
lfemur 5.42502 -0.549934 -15.1302
ltibia 29.6788
lfoot -13.6939 -0.15651
ltoes 11.7155
